<svg width="133" height="76" viewBox="0 0 133 76" fill="none" xmlns="http://www.w3.org/2000/svg">
<path d="M89.5808 19.632C90.426 17.8102 89.6377 15.6376 87.7693 14.9014C84.8127 13.7365 81.7703 12.8021 78.6694 12.1067C76.7099 11.6672 74.838 13.0229 74.5149 15.0049C74.1919 16.987 75.5406 18.8435 77.4966 19.2984C79.9472 19.8684 82.3552 20.6079 84.7033 21.5117C86.5775 22.2331 88.7357 21.4537 89.5808 19.632Z" fill="#5ECED8"/>
<path d="M119.679 52.4617C121.567 51.7776 122.553 49.6873 121.758 47.8428C120.225 44.2815 118.358 40.873 116.184 37.6626C115.057 35.9999 112.765 35.7049 111.172 36.9273C109.578 38.1497 109.289 40.426 110.402 42.0975C112.138 44.7051 113.646 47.4581 114.908 50.3255C115.717 52.1637 117.79 53.1457 119.679 52.4617Z" fill="#EE7C6D"/>
<path d="M123.078 74.9691C125.084 75.065 126.799 73.5157 126.777 71.5076C126.715 66.0329 125.923 60.5907 124.423 55.3252C123.873 53.3939 121.787 52.3973 119.892 53.0607C117.996 53.724 117.01 55.7959 117.545 57.7315C118.755 62.1085 119.411 66.6201 119.498 71.1604C119.537 73.1682 121.072 74.8733 123.078 74.9691Z" fill="#86448D"/>
<path d="M110.259 35.7684C111.821 34.5058 112.071 32.2082 110.718 30.7237C106.476 26.0671 101.544 22.0888 96.0947 18.928C94.3576 17.9204 92.165 18.6513 91.2616 20.4449C90.3582 22.2384 91.0872 24.4142 92.8163 25.4356C97.3519 28.1147 101.474 31.4395 105.052 35.3053C106.417 36.7791 108.697 37.0309 110.259 35.7684Z" fill="#4496AC"/>
<path d="M72.4737 14.7094C72.7261 12.7171 71.3155 10.8862 69.3118 10.7519C63.6555 10.3726 57.9737 10.7762 52.4278 11.9511C50.4632 12.3673 49.3256 14.3792 49.857 16.3158C50.3884 18.2524 52.3875 19.3789 54.3554 18.9782C58.9727 18.0381 63.6929 17.7029 68.3968 17.9809C70.4015 18.0994 72.2214 16.7017 72.4737 14.7094Z" fill="#3C887C"/>
<path d="M48.7236 16.8184C48.1322 14.8992 46.0923 13.8125 44.2114 14.5161C38.2011 16.7643 32.5789 19.9381 27.5487 23.9223C25.9744 25.1692 25.8508 27.4772 27.1884 28.9751C28.5261 30.473 30.8176 30.5923 32.4016 29.3579C36.6385 26.0562 41.3418 23.4011 46.3577 21.4796C48.2331 20.7612 49.3149 18.7376 48.7236 16.8184Z" fill="#327DD1"/>
<path d="M25.7683 30.2861C24.3815 28.8336 22.0711 28.7733 20.7029 30.2434C18.1901 32.9435 15.9249 35.864 13.9346 38.9695C12.8511 40.6602 13.4842 42.8831 15.236 43.865C16.9878 44.8469 19.1937 44.2151 20.2906 42.5329C21.9108 40.0483 23.7318 37.7005 25.7354 35.5132C27.0918 34.0324 27.1551 31.7386 25.7683 30.2861Z" fill="#47539F"/>
<path d="M14.6426 44.9505C12.8703 44.0062 10.6574 44.6736 9.81932 46.4985C6.23235 54.3092 4.3198 62.7851 4.20511 71.3793C4.17831 73.3873 5.8902 74.9403 7.89632 74.8485C9.90244 74.7568 11.4416 73.0549 11.4843 71.0472C11.6392 63.758 13.2603 56.5737 16.2505 49.9243C17.0742 48.0928 16.415 45.8948 14.6426 44.9505Z" fill="#CA365F"/>
<path d="M56.1379 66L73.0084 41.6702H77.6094L60.7389 66H56.1379ZM57.9155 55.0551C55.8706 55.0551 54.3137 54.4741 53.2448 53.3122C52.1758 52.1504 51.6414 50.4308 51.6414 48.1535C51.6414 45.8762 52.1758 44.1566 53.2448 42.9947C54.3137 41.8329 55.8706 41.2519 57.9155 41.2519C59.9605 41.2519 61.5174 41.8329 62.5863 42.9947C63.6552 44.1566 64.1897 45.8762 64.1897 48.1535C64.1897 50.4308 63.6552 52.1504 62.5863 53.3122C61.5174 54.4741 59.9605 55.0551 57.9155 55.0551ZM57.9155 52.0574C58.5197 52.0574 58.9729 51.825 59.2749 51.3603C59.577 50.8723 59.7281 50.1055 59.7281 49.0598V47.2472C59.7281 46.2015 59.577 45.4463 59.2749 44.9816C58.9729 44.4936 58.5197 44.2496 57.9155 44.2496C57.3114 44.2496 56.8582 44.4936 56.5561 44.9816C56.2541 45.4463 56.103 46.2015 56.103 47.2472V49.0598C56.103 50.1055 56.2541 50.8723 56.5561 51.3603C56.8582 51.825 57.3114 52.0574 57.9155 52.0574ZM75.8318 66.4183C73.7869 66.4183 72.2299 65.8373 71.161 64.6755C70.0921 63.5136 69.5576 61.794 69.5576 59.5167C69.5576 57.2394 70.0921 55.5198 71.161 54.3579C72.2299 53.1961 73.7869 52.6151 75.8318 52.6151C77.8767 52.6151 79.4336 53.1961 80.5025 54.3579C81.5715 55.5198 82.1059 57.2394 82.1059 59.5167C82.1059 61.794 81.5715 63.5136 80.5025 64.6755C79.4336 65.8373 77.8767 66.4183 75.8318 66.4183ZM75.8318 63.4206C76.4359 63.4206 76.8891 63.1882 77.1912 62.7235C77.4933 62.2355 77.6443 61.4687 77.6443 60.423V58.6104C77.6443 57.5647 77.4933 56.8095 77.1912 56.3448C76.8891 55.8568 76.4359 55.6128 75.8318 55.6128C75.2276 55.6128 74.7745 55.8568 74.4724 56.3448C74.1703 56.8095 74.0192 57.5647 74.0192 58.6104V60.423C74.0192 61.4687 74.1703 62.2355 74.4724 62.7235C74.7745 63.1882 75.2276 63.4206 75.8318 63.4206Z" fill="#242424"/>
</svg>
